Coordinates
version=1
nRows=12
nColumns=24
inDegrees=yes

Units are S.I. units (second, meters, Newtons, ...)
Angles are in degrees.

endheader
time	pelvis_tilt	pelvis_list	pelvis_rotation	pelvis_tx	pelvis_ty	pelvis_tz	hip_flexion_r	hip_adduction_r	hip_rotation_r	knee_angle_r	ankle_angle_r	subtalar_angle_r	mtp_angle_r	hip_flexion_l	hip_adduction_l	hip_rotation_l	knee_angle_l	ankle_angle_l	subtalar_angle_l	mtp_angle_l	lumbar_extension	lumbar_bending	lumbar_rotation
      0.66700000	      0.60413717	      0.18964599	     -3.19791808	     -0.48545905	      1.06671270	      0.32121064	     11.05709061	      4.38965387	     -0.50644517	    -16.58655980	      4.50322857	     -8.61492574	      3.12237831	     18.85584448	     -0.71464286	     -4.01979521	    -64.75532198	      4.33505197	     -3.86018849	      9.25630263	     -0.93234344	      3.48900447	      1.27055901
      0.67116667	      0.61932701	      0.26695587	     -3.21115268	     -0.48011049	      1.06735970	      0.32135307	     10.66961002	      4.31803391	     -0.37839797	    -16.49724063	      4.74370008	     -8.82435594	      3.13374648	     19.30819835	     -0.60137039	     -3.90939371	    -64.12459364	      4.86486217	     -4.24439072	      9.23187834	     -0.91397944	      3.34324525	      1.34807069
      0.67533333	      0.62646282	      0.33081929	     -3.20034137	     -0.47467320	      1.06800404	      0.32150446	     10.26732950	      4.25927572	     -0.26694360	    -16.35284615	      4.85966508	     -8.92280220	      3.14202936	     19.74105796	     -0.50166795	     -3.78607215	    -63.39069215	      5.10037372	     -4.44398802	      9.20925356	     -0.89358621	      3.25565864	      1.40069902
      0.67950000	      0.62297552	      0.39210057	     -3.19611716	     -0.46924847	      1.06859393	      0.32162250	      9.87765692	      4.19932039	     -0.17259411	    -16.20833043	      4.98706077	     -9.02725025	      3.15041180	     20.16355248	     -0.40269490	     -3.67984729	    -62.58247636	      5.33803811	     -4.67127378	      9.18324150	     -0.89618839	      3.18229883	      1.44575843
      0.68366667	      0.62383100	      0.44672766	     -3.19065196	     -0.46380395	      1.06918152	      0.32173336	      9.47596532	      4.14418789	     -0.08518782	    -16.04860897	      5.10305671	     -9.11325380	      3.15777061	     20.55506228	     -0.31077272	     -3.58327841	    -61.69198145	      5.53259930	     -4.88754342	      9.15700700	     -0.89396427	      3.12317894	      1.48331623
      0.68783333	      0.57204516	      0.48395268	     -3.16845536	     -0.45842553	      1.06961885	      0.32176820	      9.13529200	      4.10204192	      0.00462669	    -15.89862575	      5.16917227	     -9.15252685	      3.16045869	     20.99428973	     -0.22973954	     -3.45988049	    -60.74720439	      5.65463601	     -4.99343979	      9.14548531	     -0.95441780	      3.12357475	      1.49141667
      0.69200000	      0.61733353	      0.53825509	     -3.19161002	     -0.45294461	      1.07023884	      0.32192772	      8.67382841	      4.04742915	      0.09616390	    -15.71783531	      5.37612948	     -9.30058137	      3.17577679	     21.27580333	     -0.14712446	     -3.43196837	    -59.69087019	      5.85712926	     -5.52748641	      9.07633145	     -0.97242366	      2.98879188	      1.56102025
      0.69616667	      0.64219024	      0.57513010	     -3.17865073	     -0.44745829	      1.07078153	      0.32198089	      8.22454872	      4.00098896	      0.16373228	    -15.51797473	      5.48415264	     -9.36181147	      3.19401108	     21.56017112	     -0.06546004	     -3.35820456	    -58.55934763	      5.87827266	     -5.89862007	      8.98849309	     -0.99965597	      2.94423323	      1.62078859
      0.70033333	      0.56552859	      0.58174780	     -3.13945355	     -0.44203629	      1.07110060	      0.32197489	      7.88943596	      3.98865012	      0.23529811	    -15.32629166	      5.53713704	     -9.38256991	      3.19617806	     21.94874574	     -0.01105190	     -3.24030381	    -57.39614335	      5.97111894	     -5.96893063	      8.97553386	     -1.02254570	      2.99867756	      1.61934551
      0.70450000	      0.57790322	      0.60093651	     -3.11564324	     -0.43638529	      1.07160258	      0.32204003	      7.42670667	      3.96295240	      0.26207915	    -15.09231731	      5.67192168	     -9.45915672	      3.20168053	     22.17599714	      0.05009091	     -3.18413560	    -56.11398474	      6.07436735	     -6.25129420	      8.93739699	     -0.84578029	      2.97556508	      1.65345651
      0.70866667	      0.60983726	      0.62785355	     -3.12545888	     -0.43091276	      1.07206140	      0.32207643	      6.96298727	      3.92349473	      0.35308030	    -14.87927190	      5.83885925	     -9.53202225	      3.21688775	     22.36821407	      0.11848285	     -3.16901917	    -54.75599145	      5.97415241	     -6.95246746	      8.82151646	     -0.96798561	      2.86999749	      1.69768395
      0.71283333	      0.56352954	      0.61659229	     -3.08200797	     -0.42533376	      1.07236929	      0.32204583	      6.56432452	      3.92684826	      0.38376562	    -14.64096803	      5.90688995	     -9.55859649	      3.22089803	     22.62059759	      0.15940703	     -3.08883612	    -53.35635264	      6.01022630	     -7.10842738	      8.78455481	     -0.86313409	      2.97160056	      1.70601626
